<svg version="1.1" class="can-badge can-alert has-solid " viewBox="0 0 36 36" preserveAspectRatio="xMidYMid meet" xmlns="http://www.w3.org/2000/svg" xmlns:xlink="http://www.w3.org/1999/xlink" focusable="false" role="img" width="128" height="128" fill="currentColor"><circle cx="13.33" cy="29.75" r="2.25" class="clr-i-outline clr-i-outline-path-1"/><circle cx="27" cy="29.75" r="2.25" class="clr-i-outline clr-i-outline-path-2"/><circle cx="13.33" cy="29.75" r="2.25" class="clr-i-outline--alerted clr-i-outline-path-1--alerted" style="display:none"/><circle cx="27" cy="29.75" r="2.25" class="clr-i-outline--alerted clr-i-outline-path-2--alerted" style="display:none"/><circle cx="13.33" cy="29.75" r="2.25" class="clr-i-outline--badged clr-i-outline-path-1--badged" style="display:none"/><circle cx="27" cy="29.75" r="2.25" class="clr-i-outline--badged clr-i-outline-path-2--badged" style="display:none"/><circle cx="30" cy="6" r="5" class="clr-i-outline--badged clr-i-outline-path-5--badged clr-i-badge" style="display:none"/><circle cx="13.5" cy="29.5" r="2.5" class="clr-i-solid clr-i-solid-path-1" style="display:none"/><circle cx="26.5" cy="29.5" r="2.5" class="clr-i-solid clr-i-solid-path-2" style="display:none"/><circle cx="13.5" cy="29.5" r="2.5" class="clr-i-solid--alerted clr-i-solid-path-1--alerted" style="display:none"/><circle cx="26.5" cy="29.5" r="2.5" class="clr-i-solid--alerted clr-i-solid-path-2--alerted" style="display:none"/><circle cx="13.5" cy="29.5" r="2.5" class="clr-i-solid--badged clr-i-solid-path-1--badged" style="display:none"/><circle cx="26.5" cy="29.5" r="2.5" class="clr-i-solid--badged clr-i-solid-path-2--badged" style="display:none"/><circle cx="30" cy="6" r="5" class="clr-i-solid--badged clr-i-solid-path-4--badged clr-i-badge" style="display:none"/><path d="M33.08,5.37A1,1,0,0,0,32.31,5H11.49l.65,2H31L28.33,19h-15L8.76,4.53a1,1,0,0,0-.66-.65L4,2.62a1,1,0,1,0-.59,1.92L7,5.64l4.59,14.5L9.95,21.48l-.13.13A2.66,2.66,0,0,0,9.74,25,2.75,2.75,0,0,0,12,26H28.69a1,1,0,0,0,0-2H11.84a.67.67,0,0,1-.56-1l2.41-2H29.13a1,1,0,0,0,1-.78l3.17-14A1,1,0,0,0,33.08,5.37Z" class="clr-i-outline clr-i-outline-path-3"/><path d="M29.15,15.4,28.33,19h-15L8.76,4.53a1,1,0,0,0-.66-.65L4,2.62a1,1,0,1,0-.59,1.92L7,5.64l4.59,14.5L9.95,21.48l-.13.13A2.66,2.66,0,0,0,9.74,25,2.75,2.75,0,0,0,12,26H28.69a1,1,0,0,0,0-2H11.84a.67.67,0,0,1-.56-1l2.41-2H29.13a1,1,0,0,0,1-.78l1.09-4.82Z" class="clr-i-outline--alerted clr-i-outline-path-4--alerted" style="display:none"/><path d="M26.85,1.14,21.13,11A1.28,1.28,0,0,0,22.23,13H33.68A1.28,1.28,0,0,0,34.78,11L29.06,1.14A1.28,1.28,0,0,0,26.85,1.14Z" class="clr-i-outline--alerted clr-i-outline-path-5--alerted clr-i-alert" style="display:none"/><path d="M22.57,7a7.52,7.52,0,0,1-.07-1,7.52,7.52,0,0,1,.07-1H11.49l.65,2Z" class="clr-i-outline--badged clr-i-outline-path-3--badged" style="display:none"/><path d="M30,13.5l-.42,0L28.33,19h-15L8.76,4.53a1,1,0,0,0-.66-.65L4,2.62a1,1,0,1,0-.59,1.92L7,5.64l4.59,14.5L9.95,21.48l-.13.13A2.66,2.66,0,0,0,9.74,25,2.75,2.75,0,0,0,12,26H28.69a1,1,0,0,0,0-2H11.84a.67.67,0,0,1-.56-1l2.41-2H29.13a1,1,0,0,0,1-.78l1.57-6.91A7.51,7.51,0,0,1,30,13.5Z" class="clr-i-outline--badged clr-i-outline-path-4--badged" style="display:none"/><path d="M33.1,6.39A1,1,0,0,0,32.31,6H9.21L8.76,4.57a1,1,0,0,0-.66-.65L4,2.66a1,1,0,1,0-.59,1.92L7,5.68l4.58,14.47L9.95,21.49l-.13.13A2.66,2.66,0,0,0,9.74,25,2.75,2.75,0,0,0,12,26H28.69a1,1,0,0,0,0-2H11.84a.67.67,0,0,1-.56-1l2.41-2H29.12a1,1,0,0,0,1-.76l3.2-13A1,1,0,0,0,33.1,6.39Z" class="clr-i-solid clr-i-solid-path-3" style="display:none"/><path d="M22.23,15.4A3.68,3.68,0,0,1,19,9.89L21.29,6H9.21L8.76,4.57a1,1,0,0,0-.66-.65L4,2.66a1,1,0,1,0-.59,1.92L7,5.68l4.58,14.47L9.95,21.49l-.13.13A2.66,2.66,0,0,0,9.74,25,2.75,2.75,0,0,0,12,26H28.69a1,1,0,0,0,0-2H11.84a.67.67,0,0,1-.56-1l2.41-2H29.12a1,1,0,0,0,1-.76l1.19-4.84Z" class="clr-i-solid--alerted clr-i-solid-path-3--alerted" style="display:none"/><path d="M26.85,1.14,21.13,11A1.28,1.28,0,0,0,22.23,13H33.68A1.28,1.28,0,0,0,34.78,11L29.06,1.14A1.28,1.28,0,0,0,26.85,1.14Z" class="clr-i-solid--alerted clr-i-solid-path-4--alerted clr-i-alert" style="display:none"/><path d="M30,13.5A7.5,7.5,0,0,1,22.5,6H9.21L8.76,4.57a1,1,0,0,0-.66-.65L4,2.66a1,1,0,1,0-.59,1.92L7,5.68l4.58,14.47L9.95,21.49l-.13.13A2.66,2.66,0,0,0,9.74,25,2.75,2.75,0,0,0,12,26H28.69a1,1,0,0,0,0-2H11.84a.67.67,0,0,1-.56-1l2.41-2H29.12a1,1,0,0,0,1-.76l1.71-7A7.49,7.49,0,0,1,30,13.5Z" class="clr-i-solid--badged clr-i-solid-path-3--badged" style="display:none"/><polygon points="20.71 7 21.87 5 11.49 5 12.14 7 20.71 7" class="clr-i-outline--alerted clr-i-outline-path-3--alerted" style="display:none"/></svg>